<?xml version="1.0" encoding="utf-8"?>
<!-- Generator: Adobe Illustrator 21.0.0, SVG Export Plug-In . SVG Version: 6.00 Build 0)  -->
<svg version="1.1" id="图层_1" xmlns="http://www.w3.org/2000/svg" xmlns:xlink="http://www.w3.org/1999/xlink" x="0px" y="0px"
	 viewBox="0 0 1024 1024" style="enable-background:new 0 0 1024 1024;" xml:space="preserve">
<g>
	<path d="M768,608h-43.1C669.2,608,624,562.8,624,507.1c0-33.4,12.9-65.5,36.3-89.3c37.1-37.7,59.9-89.5,59.7-146.7
		C719.6,156.9,625.9,64,512,64c-1.1,0-2.2,0-3.3,0C395.3,65.8,304,158.2,304,272c0,56.5,22.6,107.8,59.2,145.3
		c23.4,23.9,36.8,55.8,36.8,89.3c0,56-45.4,101.4-101.4,101.4H256c-70.4,0-128,57.6-128,128v32c0,35.2,28.8,64,64,64h640
		c35.2,0,64-28.8,64-64v-32C896,665.6,838.4,608,768,608z M832,767.9L832,767.9L192.1,768l-0.1-0.1V736c0-17,6.7-33,18.9-45.1
		C223,678.7,239,672,256,672h42.6c22.3,0,44-4.4,64.4-13c19.7-8.3,37.4-20.2,52.6-35.4s27.1-32.8,35.4-52.6
		c8.6-20.4,13-42.1,13-64.4c0-25-4.9-49.5-14.5-72.7c-9.5-22.8-23.1-43.4-40.5-61.3c-26.4-27.1-41-62.8-41-100.6
		c0-38.1,14.7-74,41.4-101.1c26.7-27.1,62.3-42.3,100.3-42.9c0.8,0,1.5,0,2.3,0c38.1,0,74.2,15,101.4,42.1
		c27.3,27.2,42.4,63.2,42.6,101.3c0.1,38.2-14.5,74.3-41.3,101.5c-17.5,17.8-31.2,38.6-40.6,61.9c-9.3,23-14.1,47.3-14.1,72.3
		c0,22.2,4.4,43.8,13,64.2c8.3,19.6,20.2,37.3,35.3,52.4s32.7,27,52.4,35.3c20.4,8.6,42,13,64.2,13H768c17,0,33,6.7,45.1,18.9
		C825.3,703,832,719,832,736V767.9z"/>
	<path d="M768,896H256c-17.7,0-32,14.3-32,32s14.3,32,32,32h512c17.7,0,32-14.3,32-32S785.7,896,768,896z"/>
</g>
</svg>
