<?xml version="1.0" encoding="utf-8"?>
<!-- Generator: Adobe Illustrator 21.0.0, SVG Export Plug-In . SVG Version: 6.00 Build 0)  -->
<svg version="1.1" id="图层_1" xmlns="http://www.w3.org/2000/svg" xmlns:xlink="http://www.w3.org/1999/xlink" x="0px" y="0px"
	 viewBox="0 0 1024 1024" style="enable-background:new 0 0 1024 1024;" xml:space="preserve">
<g>
	<path d="M879.9,468.4L512,683L144.1,468.4c-15.3-8.9-34.9-3.7-43.8,11.5c-8.9,15.3-3.7,34.9,11.5,43.8l384,224
		c5,2.9,10.6,4.4,16.1,4.4c5.6,0,11.1-1.5,16.1-4.4l384-224c15.3-8.9,20.4-28.5,11.5-43.8C914.7,464.6,895.1,459.5,879.9,468.4z"/>
	<path d="M879.9,644.4L512,859L144.1,644.4c-15.3-8.9-34.9-3.7-43.8,11.5c-8.9,15.3-3.7,34.9,11.5,43.8l384,224
		c5,2.9,10.6,4.4,16.1,4.4c5.6,0,11.1-1.5,16.1-4.4l384-224c15.3-8.9,20.4-28.5,11.5-43.8C914.7,640.6,895.1,635.5,879.9,644.4z"/>
	<path d="M111.9,347.6l384,224c5,2.9,10.6,4.4,16.1,4.4c5.6,0,11.1-1.5,16.1-4.4l384-224c9.8-5.7,15.9-16.3,15.9-27.6
		c0-11.3-6-21.9-15.9-27.6l-384-224c-10-5.8-22.3-5.8-32.2,0l-384,224C102,298.1,96,308.6,96,320C96,331.4,102,341.9,111.9,347.6z
		 M512,133l320.5,187L512,507L191.5,320L512,133z"/>
</g>
</svg>
