<?xml version="1.0" encoding="utf-8"?>
<!-- Generator: Adobe Illustrator 21.0.0, SVG Export Plug-In . SVG Version: 6.00 Build 0)  -->
<svg version="1.1" id="图层_1" xmlns="http://www.w3.org/2000/svg" xmlns:xlink="http://www.w3.org/1999/xlink" x="0px" y="0px"
	 viewBox="0 0 1024 1024" style="enable-background:new 0 0 1024 1024;" xml:space="preserve">
<g>
	<path d="M800,240H672v-64c0-35.2-28.8-64-64-64H416c-35.2,0-64,28.8-64,64v64H224c-70.4,0-128,57.6-128,128v416
		c0,70.4,57.6,128,128,128h576c70.4,0,128-57.6,128-128V368C928,297.6,870.4,240,800,240z M416,176.1l0.1-0.1h191.8l0.1,0.1v63.8
		l-0.1,0.1H416.1l-0.1-0.1V176.1z M864,784c0,17-6.7,33-18.9,45.1C833,841.3,817,848,800,848H224c-17,0-33-6.7-45.1-18.9
		C166.7,817,160,801,160,784V496h704V784z M864,432H160v-64c0-17,6.7-33,18.9-45.1C191,310.7,207,304,224,304h192h192h192
		c17,0,33,6.7,45.1,18.9C857.3,335,864,351,864,368V432z"/>
	<path d="M448,696h128c17.7,0,32-14.3,32-32s-14.3-32-32-32H448c-17.7,0-32,14.3-32,32S430.3,696,448,696z"/>
</g>
</svg>
