<?xml version="1.0" encoding="utf-8"?>
<!-- Generator: Adobe Illustrator 21.0.0, SVG Export Plug-In . SVG Version: 6.00 Build 0)  -->
<svg version="1.1" id="图层_1" xmlns="http://www.w3.org/2000/svg" xmlns:xlink="http://www.w3.org/1999/xlink" x="0px" y="0px"
	 viewBox="0 0 1024 1024" style="enable-background:new 0 0 1024 1024;" xml:space="preserve">
<g>
	<path d="M848,112H688c-35.2,0-64,28.8-64,64v178.7L354.7,624H176c-35.2,0-64,28.8-64,64v160c0,35.2,28.8,64,64,64h160
		c35.2,0,64-28.8,64-64V669.3L669.3,400H848c35.2,0,64-28.8,64-64V176C912,140.8,883.2,112,848,112z M336,847.9L336,847.9L176.1,848
		l-0.1-0.1V688.1l0.1-0.1H336V847.9z M847.9,336H688V176.1l0.1-0.1h159.8l0.1,0.1l0,159.8L847.9,336z"/>
	<path d="M256,400c79.5,0,144-64.5,144-144s-64.5-144-144-144s-144,64.5-144,144S176.5,400,256,400z M256,176c44.1,0,80,35.9,80,80
		c0,44.1-35.9,80-80,80c-44.1,0-80-35.9-80-80C176,211.9,211.9,176,256,176z"/>
	<path d="M768,624c-79.5,0-144,64.5-144,144s64.5,144,144,144s144-64.5,144-144S847.5,624,768,624z M768,848c-44.1,0-80-35.9-80-80
		s35.9-80,80-80s80,35.9,80,80S812.1,848,768,848z"/>
</g>
</svg>
