<?xml version="1.0" encoding="utf-8"?>
<!-- Generator: Adobe Illustrator 21.0.0, SVG Export Plug-In . SVG Version: 6.00 Build 0)  -->
<svg version="1.1" id="图层_1" xmlns="http://www.w3.org/2000/svg" xmlns:xlink="http://www.w3.org/1999/xlink" x="0px" y="0px"
	 viewBox="0 0 1024 1024" style="enable-background:new 0 0 1024 1024;" xml:space="preserve">
<g id="图层_197">
	<g>
		<path d="M863.2,257.8L559.2,86c-29.1-16.5-65.3-16.5-94.5,0l-304,171.8c-30.1,17-48.8,49-48.8,83.6v341.3
			c0,34.5,18.7,66.6,48.8,83.6l304,171.8c14.6,8.2,30.9,12.4,47.2,12.4c16.3,0,32.7-4.1,47.2-12.4l304-171.8
			c30.1-17,48.8-49,48.8-83.6V341.3C912,306.8,893.3,274.8,863.2,257.8z M848,682.7c0,11.5-6.2,22.2-16.3,27.9l-304,171.8
			c-9.7,5.5-21.8,5.5-31.5,0l-304-171.8c-10-5.7-16.3-16.3-16.3-27.9V341.3c0-11.5,6.2-22.2,16.3-27.9l304-171.8
			c4.9-2.7,10.3-4.1,15.7-4.1s10.9,1.4,15.7,4.1l304,171.8c10,5.7,16.3,16.3,16.3,27.9L848,682.7L848,682.7z"/>
		<path d="M687.9,372.4L512,475L336.1,372.4c-15.3-8.9-34.9-3.7-43.8,11.5c-8.9,15.3-3.7,34.9,11.5,43.8L480,530.4V704
			c0,17.7,14.3,32,32,32s32-14.3,32-32V530.4l176.1-102.7c15.3-8.9,20.4-28.5,11.5-43.8C722.7,368.6,703.1,363.5,687.9,372.4z"/>
	</g>
</g>
</svg>
