<?xml version="1.0" encoding="utf-8"?>
<!-- Generator: Adobe Illustrator 21.0.0, SVG Export Plug-In . SVG Version: 6.00 Build 0)  -->
<svg version="1.1" id="图层_1" xmlns="http://www.w3.org/2000/svg" xmlns:xlink="http://www.w3.org/1999/xlink" x="0px" y="0px"
	 viewBox="0 0 1024 1024" style="enable-background:new 0 0 1024 1024;" xml:space="preserve">
<path d="M896,832h-64V448h64c13.5,0,25.5-8.4,30.1-21.1s0.7-26.9-9.6-35.5l-343-285.9c-35.6-29.7-87.3-29.7-122.9,0l-343,285.9
	c-10.4,8.6-14.2,22.8-9.6,35.5c4.6,12.7,16.6,21.1,30.1,21.1h64v384h-64c-17.6,0-32,14.4-32,32s14.4,32,32,32h64h64h128h64h128h64
	h128h64h64c17.6,0,32-14.4,32-32C928,846.4,913.6,832,896,832z M384,832H256V448h128V832z M576,832H448V448h128V832z M768,832H640
	V448h128V832z M216.4,384l275.1-229.3c11.9-9.9,29.1-9.9,41,0L807.6,384H216.4z"/>
</svg>
