<?xml version="1.0" standalone="no"?><!DOCTYPE svg PUBLIC "-//W3C//DTD SVG 1.1//EN" "http://www.w3.org/Graphics/SVG/1.1/DTD/svg11.dtd"><svg t="1540949998146" class="icon" style="" viewBox="0 0 1024 1024" version="1.1" xmlns="http://www.w3.org/2000/svg" p-id="1343" xmlns:xlink="http://www.w3.org/1999/xlink" width="200" height="200"><defs><style type="text/css"></style></defs><path d="M512 813.5c-12.75 0-22.5-9.75-22.5-22.5v-63H392c-12.75 0-22.5-9.75-22.5-22.5s9.75-22.5 22.5-22.5h97.5v-57H392c-12.75 0-22.5-9.75-22.5-22.5s9.75-22.5 22.5-22.5h104.25L392 476.75c-4.5-4.5-6.75-9.75-6.75-15.75s2.25-12 6.75-15.75c4.5-4.5 9.75-6.75 15.75-6.75s12 2.25 15.75 6.75l88.5 87.75 87.75-88.5c4.5-4.5 9.75-6.75 15.75-6.75s12 2.25 15.75 6.75c9 9 9 23.25 0 31.5l-103.5 105H632c12.75 0 22.5 9.75 22.5 22.5s-9.75 22.5-22.5 22.5H534.5v57h97.5c12.75 0 22.5 9.75 22.5 22.5s-9.75 22.5-22.5 22.5H534.5v63c0 12-9.75 22.5-22.5 22.5z" p-id="1344" fill="#F73E58"></path><path d="M294.5 980c-30.75 0-108-6.75-165.75-66.75C80.75 863 58.25 789.5 61.25 693.5c7.5-197.25 181.5-330 255.75-377.25l12-7.5-9-10.5c-18.75-21-50.25-62.25-57.75-110.25-4.5-29.25 2.25-55.5 18.75-75.75 20.25-26.25 44.25-31.5 60.75-31.5 18 0 37.5 6.75 57 18.75l8.25 6 6.75-9c17.25-23.25 48.75-51.75 96.75-52.5h1.5c48.75 0 80.25 28.5 98.25 52.5l6.75 9 9-6c19.5-12.75 39-18.75 57-18.75 16.5 0 40.5 5.25 60.75 31.5 16.5 21 22.5 47.25 18 75.75-5.25 35.25-26.25 75.75-57.75 110.25l-9 10.5 12 7.5c74.25 48 248.25 180 255.75 377.25 3.75 96-19.5 170.25-67.5 219.75-57.75 60-135.75 66.75-165.75 66.75H294.5z m80.25-645.75C347.75 349.25 114.5 483.5 106.25 695 103.25 779 122 842 161 882.5c45.75 47.25 108.75 52.5 133.5 52.5h435c24.75 0 87.75-5.25 133.5-52.5C902 842 920.75 779 917.75 695.75c-7.5-212.25-241.5-346.5-267.75-360.75l-4.5-3-5.25 1.5c-2.25 0.75-4.5 1.5-6.75 1.5H392c-2.25 0-4.5-0.75-7.5-1.5l-5.25-1.5-4.5 2.25z m-33.75-209.25c-6 0-15 1.5-25.5 14.25-9 11.25-12 24.75-9 42 6 43.5 45 89.25 68.25 108l4.5 3.75 6-1.5c3-0.75 4.5-1.5 6-1.5h241.5c0.75 0 2.25 0.75 3.75 0.75l7.5 2.25 4.5-3.75c23.25-18.75 62.25-64.5 68.25-108 2.25-17.25-0.75-30.75-9-42-9.75-12.75-18.75-14.25-25.5-14.25-21.75 0-48 22.5-56.25 31.5-4.5 4.5-10.5 7.5-16.5 7.5-1.5 0-3 0-4.5-0.75-7.5-1.5-14.25-6.75-16.5-14.25-2.25-6.75-25.5-60-76.5-60h-1.5c-53.25 0.75-75 57.75-75.75 60-3 7.5-9 12.75-16.5 14.25-1.5 0-3 0.75-4.5 0.75-6 0-12-2.25-16.5-7.5-8.25-9-34.5-31.5-56.25-31.5z" p-id="1345" fill="#F73E58"></path></svg>