<?xml version="1.0" standalone="no"?><!DOCTYPE svg PUBLIC "-//W3C//DTD SVG 1.1//EN" "http://www.w3.org/Graphics/SVG/1.1/DTD/svg11.dtd"><svg t="1540949900247" class="icon" style="" viewBox="0 0 1024 1024" version="1.1" xmlns="http://www.w3.org/2000/svg" p-id="990" xmlns:xlink="http://www.w3.org/1999/xlink" width="200" height="200"><defs><style type="text/css"></style></defs><path d="M101.20704 297.1392a22.07744 22.07744 0 0 0-22.07744 22.07744v529.81248a22.08256 22.08256 0 0 0 22.07744 22.07744h824.15104a22.07232 22.07232 0 0 0 22.07744-22.07744V319.21664a22.07232 22.07232 0 0 0-22.07744-22.07744H101.20704z m0-73.58464h824.15104c52.80256 0 95.66208 42.85952 95.66208 95.66208v529.81248c0 52.80256-42.85952 95.66208-95.66208 95.66208H101.20704c-52.83328 0-95.66208-42.8288-95.66208-95.66208V319.21664c0-52.80768 42.8544-95.66208 95.66208-95.66208z" fill="#1875F0" p-id="991"></path><path d="M272.74752 455.43424h38.85568l128.9216 187.55584h1.408V455.43424h38.5024v252.19072h-37.44256l-130.33472-189.67552h-1.41312v189.67552h-38.5024V455.43424h0.00512z m369.09568-4.94592c38.14912 0 68.52608 12.3648 90.77248 37.44256 21.19168 23.65952 31.7952 55.09632 31.7952 93.95712 0 38.49728-10.60352 69.57568-31.7952 93.5936-22.25152 24.71936-52.62336 37.08928-90.77248 37.08928-38.5024 0-68.86912-12.71808-90.77248-37.44256-21.1968-24.01792-31.44192-55.10656-31.44192-93.24544 0-38.50752 10.24512-69.58592 31.44192-93.60384 21.90336-25.43104 52.2752-37.79072 90.77248-37.79072z m0 33.90976c-26.84416 0-47.68256 8.832-62.52032 27.19232-14.12608 17.31072-21.18656 40.6272-21.18656 70.29248 0 29.31712 7.06048 52.62336 21.18656 69.92896 14.83776 17.65888 35.68128 26.84928 62.52032 26.84928 26.84416 0 47.68256-8.832 62.17216-26.14272 14.12096-16.95232 21.54496-40.61696 21.54496-70.63552 0-30.37696-7.424-54.04672-21.54496-71.35232-14.48448-17.65376-35.32288-26.13248-62.17216-26.13248zM469.8368 149.96992l14.72 73.58464h57.45152l14.72-73.58464H469.8368z m139.33568 112.84992a42.68544 42.68544 0 0 1-41.856 34.32448H459.2384a42.69056 42.69056 0 0 1-41.79968-34.32448l-27.07968-135.3984a42.6752 42.6752 0 0 1 33.4336-50.21184c4.1216-0.70656 4.1216-0.70656 8.36096-0.82432h162.24256c23.54688 0 42.68032 19.12832 42.68032 42.6752-0.11776 4.23936-0.11776 4.23936-0.8192 8.35584l-27.0848 135.40352z" fill="#1875F0" p-id="992"></path></svg>