<?xml version="1.0" standalone="no"?><!DOCTYPE svg PUBLIC "-//W3C//DTD SVG 1.1//EN" "http://www.w3.org/Graphics/SVG/1.1/DTD/svg11.dtd"><svg class="icon" width="200px" height="200.00px" viewBox="0 0 1024 1024" version="1.1" xmlns="http://www.w3.org/2000/svg"><path fill="#eeb174" d="M600.9 551.1c-32.3-32.3-70-57.7-111.9-75.4-3-1.3-6.1-2.5-9.1-3.7 10.8-7.5 21-16.1 30.5-25.6 42.3-42.3 65.6-98.6 65.6-158.4S552.7 171.9 510.4 129.6s-98.6-65.6-158.4-65.6-116.1 23.3-158.4 65.6S128 228.2 128 288s23.3 116.1 65.6 158.4c9.5 9.5 19.7 18 30.5 25.6-3.1 1.2-6.1 2.4-9.1 3.7-41.9 17.7-79.6 43.1-111.9 75.4s-57.7 70-75.4 111.9c-18.4 43.4-27.7 89.5-27.7 137v128c0 17.7 14.3 32 32 32h640c17.7 0 32-14.3 32-32v-128c0-47.5-9.3-93.6-27.7-137-17.7-41.9-43.1-79.6-75.4-111.9zM192 288c0-88.2 71.8-160 160-160s160 71.8 160 160-71.8 160-160 160-160-71.8-160-160z m448 608H64v-96c0-158.8 129.2-288 288-288s288 129.2 288 288v96zM992 192H672c-17.6 0-32 14.4-32 32s14.4 32 32 32h320c17.6 0 32-14.4 32-32s-14.4-32-32-32zM992 448H736c-17.6 0-32 14.4-32 32s14.4 32 32 32h256c17.6 0 32-14.4 32-32s-14.4-32-32-32zM992 704H864c-17.6 0-32 14.4-32 32s14.4 32 32 32h128c17.6 0 32-14.4 32-32s-14.4-32-32-32z"  /></svg>