<?xml version="1.0" encoding="utf-8"?>
<!-- Generator: Adobe Illustrator 21.0.0, SVG Export Plug-In . SVG Version: 6.00 Build 0)  -->
<svg version="1.1" id="图层_1" xmlns="http://www.w3.org/2000/svg" xmlns:xlink="http://www.w3.org/1999/xlink" x="0px" y="0px"
	 viewBox="0 0 1024 1024" style="enable-background:new 0 0 1024 1024;" xml:space="preserve">
<g>
	<path d="M880,128H144c-35.2,0-64,28.8-64,64v128c0,29.7,20.5,54.8,48,62v385.9c0,70.5,57.7,128.1,128.1,128.1h511.7
		c70.5,0,128.1-57.7,128.1-128.1V382c27.5-7.2,48-32.3,48-62V192C944,156.8,915.2,128,880,128z M832,767.9c0,17-6.7,33.1-18.9,45.2
		c-12.2,12.2-28.2,18.9-45.2,18.9H256.1c-17,0-33.1-6.7-45.2-18.9c-12.2-12.2-18.9-28.2-18.9-45.2V384h640V767.9z M880,319.9
		L880,319.9L144.1,320l-0.1-0.1l0-127.8l0.1-0.1h735.8l0.1,0.1V319.9z"/>
	<path d="M416,704h192c17.6,0,32-14.4,32-32s-14.4-32-32-32H416c-17.6,0-32,14.4-32,32S398.4,704,416,704z"/>
</g>
</svg>
