<?xml version="1.0" standalone="no"?><!DOCTYPE svg PUBLIC "-//W3C//DTD SVG 1.1//EN" "http://www.w3.org/Graphics/SVG/1.1/DTD/svg11.dtd"><svg t="1553248170466" class="icon" style="" viewBox="0 0 1024 1024" version="1.1" xmlns="http://www.w3.org/2000/svg" p-id="4917" xmlns:xlink="http://www.w3.org/1999/xlink"><defs><style type="text/css"></style></defs><path d="M597.9 215.5H123.4C90.6 215.5 64 189 64 156.1c0-32.7 26.6-59.2 59.4-59.2h474.5c32.7 0 59.2 26.5 59.2 59.2 0 32.9-26.5 59.4-59.2 59.4z m302.9 474.4H604.1c-32.7 0-59.2-26.5-59.2-59.2 0-32.9 26.5-59.4 59.2-59.4h296.6c32.7 0 59.2 26.5 59.2 59.4 0.1 32.7-26.4 59.2-59.1 59.2z m0 237.3H123.4C90.7 927.2 64 900.7 64 868c0-32.9 26.6-59.4 59.4-59.4h777.4c32.7 0 59.2 26.5 59.2 59.4 0 32.7-26.5 59.2-59.2 59.2zM360.6 749.3c-32.7 0-59.4-26.6-59.4-59.4V215.5c0-32.8 26.6-59.4 59.4-59.4s59.2 26.6 59.2 59.4V690c0.1 32.7-26.4 59.3-59.2 59.3z m540.2-296.6h-178c-32.7 0-59.2-26.5-59.2-59.2 0-32.9 26.5-59.4 59.2-59.4h178c32.7 0 59.2 26.5 59.2 59.4 0 32.7-26.5 59.2-59.2 59.2z"  p-id="4918"></path></svg>