<?xml version="1.0" standalone="no"?><!DOCTYPE svg PUBLIC "-//W3C//DTD SVG 1.1//EN" "http://www.w3.org/Graphics/SVG/1.1/DTD/svg11.dtd"><svg class="icon" viewBox="0 0 1024 1024" version="1.1" xmlns="http://www.w3.org/2000/svg"><path d="M816.739994 914.004138 207.258755 914.004138C159.330024 914.004138 120.339961 874.984884 120.339961 827.024528L120.339961 197.533759c0-47.965221 38.990063-86.983259 86.918795-86.983259l609.482455 0c47.928732 0 86.918795 39.018038 86.918795 86.983259l0 629.487121C903.658789 874.984884 864.669942 914.004138 816.739994 914.004138L816.739994 914.004138zM197.79464 158.128934c-16.472499 0-29.876245 13.40253-29.876245 29.875029l0 648.545496c0 16.472499 13.403746 29.876245 29.876245 29.876245l628.409469 0c16.472499 0 29.876245-13.403746 29.876245-29.876245L856.080355 188.003963c0-16.472499-13.403746-29.875029-29.876245-29.875029L197.79464 158.128934 197.79464 158.128934zM197.79464 158.128934M757.059266 463.156602 266.938267 463.156602 266.938267 149.500424l29.87138 0 0 283.784798 430.379456 0L727.189103 149.500424l29.870164 0L757.059266 463.156602zM757.059266 463.156602M670.763223 388.477545l-87.402886 0L583.360336 239.118213l87.402886 0L670.763223 388.477545 670.763223 388.477545zM613.2305 358.606165l27.662559 0 0-89.617789-27.662559 0L613.2305 358.606165 613.2305 358.606165zM613.2305 358.606165" /></svg>