<?xml version="1.0" encoding="utf-8"?>
<!-- Generator: Adobe Illustrator 21.0.0, SVG Export Plug-In . SVG Version: 6.00 Build 0)  -->
<svg version="1.1" id="图层_1" xmlns="http://www.w3.org/2000/svg" xmlns:xlink="http://www.w3.org/1999/xlink" x="0px" y="0px"
	 viewBox="0 0 1024 1024" style="enable-background:new 0 0 1024 1024;" xml:space="preserve">
<g>
	<path d="M768,96h-72.7c-11.1-19.1-31.8-32-55.3-32H384c-23.6,0-44.2,12.9-55.3,32H256c-70.4,0-128,57.6-128,128v608
		c0,70.4,57.6,128,128,128h512c70.4,0,128-57.6,128-128V224C896,153.6,838.4,96,768,96z M384.1,128h255.8l0.1,0.1v63.8l-0.1,0.1
		H384.1l-0.1-0.1l0-63.8L384.1,128z M832,832c0,17-6.7,33-18.9,45.1C801,889.3,785,896,768,896H256c-17,0-33-6.7-45.1-18.9
		C198.7,865,192,849,192,832V224c0-17,6.7-33,18.9-45.1C223,166.7,239,160,256,160h64v32c0,35.2,28.8,64,64,64h256
		c35.2,0,64-28.8,64-64v-32h64c17,0,33,6.7,45.1,18.9C825.3,191,832,207,832,224V832z"/>
	<path d="M665.4,457.4L560,562.7l-73.4-73.4c-12.5-12.5-32.8-12.5-45.3,0l-128,128c-12.5,12.5-12.5,32.8,0,45.3
		c6.2,6.2,14.4,9.4,22.6,9.4s16.4-3.1,22.6-9.4L464,557.3l73.4,73.4c12.5,12.5,32.8,12.5,45.3,0l128-128c12.5-12.5,12.5-32.8,0-45.3
		C698.1,444.9,677.9,444.9,665.4,457.4z"/>
</g>
</svg>
