<?xml version="1.0" standalone="no"?><!DOCTYPE svg PUBLIC "-//W3C//DTD SVG 1.1//EN" "http://www.w3.org/Graphics/SVG/1.1/DTD/svg11.dtd"><svg t="1554193519685" class="icon" style="" viewBox="0 0 1365 1024" version="1.1" xmlns="http://www.w3.org/2000/svg" p-id="3203" xmlns:xlink="http://www.w3.org/1999/xlink"><defs><style type="text/css"></style></defs><path d="M754.005333 1024h285.269334v-0.170667C1220.266667 1018.453333 1365.333333 869.290667 1365.333333 686.08c0-186.624-150.528-337.92-336.213333-337.92-3.413333 0-6.912 0-10.410667 0.170667 0.170667-3.413333 0.170667-6.912 0.170667-10.410667C1018.88 151.296 868.352 0 682.666667 0S346.453333 151.296 346.453333 337.92c0 3.413333 0 6.912 0.170667 10.410667a340.736 340.736 0 0 0-10.410667-0.170667C150.528 348.16 0 499.456 0 686.08c0 183.210667 145.066667 332.373333 325.973333 337.749333V1024h305.749334V795.136h-120.32c-33.962667 0-46.336-23.04-27.733334-51.541333L670.464 459.093333c11.946667-18.261333 32.426667-18.944 44.8 0l186.794667 284.501334c18.517333 28.330667 6.229333 51.541333-27.818667 51.541333h-120.32V1024z" p-id="3204"></path></svg>